<svg xmlns="http://www.w3.org/2000/svg" viewBox="0 0 256 256" role="img" aria-label="Karabiner+">
  <defs>
    <filter id="soft-shadow" x="-28%" y="-28%" width="156%" height="166%">
      <feDropShadow dx="0" dy="6" stdDeviation="5" flood-color="#1F252B" flood-opacity="0.24"/>
    </filter>
    <filter id="key-shadow" x="-22%" y="-22%" width="144%" height="150%">
      <feDropShadow dx="0" dy="3" stdDeviation="3" flood-color="#1F252B" flood-opacity="0.12"/>
    </filter>
  </defs>

  <rect width="256" height="256" fill="none"/>

  <g fill="#EAF2F6" fill-opacity="0.66" stroke="#20252B" stroke-opacity="0.28" stroke-width="1.4" filter="url(#key-shadow)">
    <rect x="125" y="69" width="30" height="19" rx="4"/>
    <rect x="164" y="69" width="30" height="19" rx="4"/>
    <rect x="203" y="69" width="23" height="19" rx="4"/>
    <rect x="130" y="103" width="33" height="20" rx="4"/>
    <rect x="171" y="103" width="33" height="20" rx="4"/>
    <rect x="211" y="103" width="18" height="20" rx="4"/>
    <rect x="131" y="138" width="39" height="21" rx="4"/>
    <rect x="178" y="138" width="37" height="21" rx="4"/>
    <rect x="129" y="173" width="74" height="20" rx="4"/>
    <rect x="211" y="173" width="18" height="20" rx="4"/>
  </g>

  <g transform="translate(-4 4) rotate(-6 88 128) scale(1.12 1.12)" filter="url(#soft-shadow)">
    <path fill="#FFFFFF" fill-opacity="0.98" stroke="#20252B" stroke-width="5" stroke-linejoin="round" fill-rule="evenodd" d="M96.5 57.5C78.5 53 59 54 52.5 71.5C40.5 98 33 171 44.5 194C53.5 211 74 216 91 205C111 192 119 162 121.5 119C124 81 116.5 62.5 96.5 57.5ZM88.5 78.5C79.5 76.5 68.5 78 64.5 87.5C56 108 52 162 59 178.5C64 189 76 190 85 183C98.5 172 102.5 144 103.5 119C104.5 93.5 100 81 88.5 78.5Z"/>
    <path d="M97.5 80C104 95 108.5 145 102 178" fill="none" stroke="#20252B" stroke-width="5.4" stroke-linecap="round"/>
    <path d="M97.5 80C104 95 108.5 145 102 178" fill="none" stroke="#FFFFFF" stroke-width="2.5" stroke-linecap="round"/>
    <rect x="98" y="108" width="23" height="10.5" rx="3" fill="#FFFFFF" stroke="#20252B" stroke-width="2.7"/>
    <rect x="100" y="123" width="23" height="10.5" rx="3" fill="#FFFFFF" stroke="#20252B" stroke-width="2.7"/>
    <circle cx="96.5" cy="192" r="4.2" fill="#20252B"/>
    <circle cx="96.5" cy="192" r="1.5" fill="#FFFFFF"/>
  </g>

  <g filter="url(#soft-shadow)">
    <rect x="158" y="115" width="60" height="19" rx="9.5" fill="#F05A1A"/>
    <rect x="178" y="95" width="19" height="60" rx="9.5" fill="#F05A1A"/>
    <rect x="165" y="121" width="46" height="7" rx="3.5" fill="#FFFFFF" fill-opacity="0.72"/>
    <rect x="184" y="102" width="7" height="46" rx="3.5" fill="#FFFFFF" fill-opacity="0.72"/>
  </g>
</svg>
